<?xml version="1.0" encoding="UTF-8"?>
<!DOCTYPE svg PUBLIC "-//W3C//DTD SVG 1.1//EN" "http://www.w3.org/Graphics/SVG/1.1/DTD/svg11.dtd">
<svg xmlns="http://www.w3.org/2000/svg" version="1.1" width="3024px" height="3522px" style="shape-rendering:geometricPrecision; text-rendering:geometricPrecision; image-rendering:optimizeQuality; fill-rule:evenodd; clip-rule:evenodd" xmlns:xlink="http://www.w3.org/1999/xlink">
<g><path style="opacity:0.998" fill="#595aa8" d="M 1250.5,-0.5 C 1277.5,-0.5 1304.5,-0.5 1331.5,-0.5C 1601.68,5.46131 1858.68,66.628 2102.5,183C 2351.32,305.441 2561.15,476.274 2732,695.5C 2913.07,937.488 3010.23,1210.15 3023.5,1513.5C 3023.5,1544.17 3023.5,1574.83 3023.5,1605.5C 3010.42,1925.72 2900.59,2207.05 2694,2449.5C 2619.36,2535.17 2535.86,2610.34 2443.5,2675C 2212.63,2830.81 1957.63,2900.15 1678.5,2883C 1407.47,2862.74 1170.14,2764.08 966.5,2587C 888.47,2517.35 821.97,2438.52 767,2350.5C 649.731,2155.22 615.397,1946.22 664,1723.5C 707.193,1550.78 799.36,1410.94 940.5,1304C 960.821,1289.5 981.821,1276 1003.5,1263.5C 1004.52,1264 1004.69,1264.67 1004,1265.5C 923.501,1358.82 868.501,1465.82 839,1586.5C 802.747,1749.81 822.747,1905.81 899,2054.5C 941.81,2133.34 997.977,2201.51 1067.5,2259C 1250.12,2408.76 1460.12,2478.76 1697.5,2469C 1926.77,2453.94 2117.27,2361.11 2269,2190.5C 2441.74,1993.97 2520.41,1764.31 2505,1501.5C 2489.66,1322.93 2428.66,1162.26 2322,1019.5C 2202.37,865.849 2054.87,747.016 1879.5,663C 1717.69,586.63 1547.36,542.963 1368.5,532C 1014.29,514.707 689.622,603.374 394.5,798C 393.216,798.684 392.049,798.517 391,797.5C 295.721,664.554 200.054,531.887 104,399.5C 103.219,398.056 103.386,396.723 104.5,395.5C 374.757,192.957 678.09,67.4571 1014.5,19C 1092.97,8.18307 1171.64,1.68307 1250.5,-0.5 Z"/></g>
<g><path style="opacity:0.998" fill="#847cba" d="M 1788.5,3521.5 C 1750.83,3521.5 1713.17,3521.5 1675.5,3521.5C 1407.46,3513.32 1152.8,3450.82 911.5,3334C 667.464,3212.34 461.297,3043.84 293,2828.5C 110.92,2586.15 13.0866,2312.81 -0.5,2008.5C -0.5,1977.5 -0.5,1946.5 -0.5,1915.5C 12.5539,1597.69 121.054,1318.02 325,1076.5C 422.337,963.434 534.837,869.268 662.5,794C 872.671,675.711 1098.34,623.711 1339.5,638C 1580.6,654.672 1797.26,735.006 1989.5,879C 2093.52,959.337 2181.02,1054.5 2252,1164.5C 2369.02,1355.26 2406.02,1560.59 2363,1780.5C 2320.77,1967.63 2222.27,2116.79 2067.5,2228C 2052.43,2238.06 2037.1,2247.73 2021.5,2257C 2020.5,2257.67 2019.5,2257.67 2018.5,2257C 2085.16,2179.23 2134.99,2091.4 2168,1993.5C 2219.82,1827.67 2211.48,1665 2143,1505.5C 2100.62,1414.11 2041.12,1335.61 1964.5,1270C 1782.48,1116.65 1571.82,1043.99 1332.5,1052C 1102.75,1065.14 911.255,1156.64 758,1326.5C 590.855,1513.86 510.188,1733.86 516,1986.5C 524.554,2165.82 579.887,2328.82 682,2475.5C 731.564,2545.42 788.731,2608.92 853.5,2666C 1007.08,2800.31 1183.41,2893.65 1382.5,2946C 1624.47,3006.59 1866.8,3007.93 2109.5,2950C 2296.9,2904.61 2470.57,2828.78 2630.5,2722.5C 2727.43,2855.93 2823.76,2989.76 2919.5,3124C 2919.24,3125.26 2918.57,3126.26 2917.5,3127C 2653.88,3323.73 2358.55,3447.73 2031.5,3499C 1950.78,3511.17 1869.78,3518.67 1788.5,3521.5 Z"/></g>
</svg>
